# Blender v2.82 (sub 7) OBJ File: 'Rocks.blend'
# www.blender.org
mtllib Rock8.mtl
o RockFormation_RockMesh.010
v 1.827885 -1.412659 1.107830
v -1.267676 6.836733 -0.621100
v 1.914637 -1.285936 -1.189556
v -0.781728 7.035472 -0.695288
v 0.763238 -1.494324 1.314864
v -2.367150 -1.318504 -0.613971
v -2.321743 0.572936 1.359626
v -1.852157 1.629590 0.919057
v -1.699315 4.383764 1.062773
v -1.383212 4.635290 -1.015020
v -2.211217 3.096220 -1.444306
v -2.015504 2.219808 -1.410874
v -1.542379 1.575507 -1.479512
v 0.632725 5.040821 -0.954062
v 1.025504 4.046412 -1.056459
v 1.204604 2.885028 -1.457222
v 1.999550 0.494542 -1.530862
v 2.050686 -0.785274 -1.462474
v 0.787522 4.397301 0.277711
v 1.493833 1.749482 0.643695
v -1.346086 6.047911 0.106775
v -2.200152 3.729035 -0.293116
v -2.887101 0.233329 -0.093115
v -2.735914 -0.935363 -0.098559
v 0.386361 1.900038 1.086019
v 0.094285 -0.963091 1.737049
v -0.407809 3.168856 -1.770293
v -0.372333 0.641277 -1.971370
v -1.070696 6.976133 -0.027683
v -2.167186 -0.471075 -1.571069
v -0.161129 6.970301 -0.829799
v -0.126257 7.039284 -0.021766
v -0.541394 7.016273 0.098936
v 0.214379 6.926983 -0.366981
v 2.455321 -1.027718 0.622249
v 1.059292 -1.112186 -1.715974
v -1.464815 -1.301612 1.220030
v 0.741759 -1.439234 -1.271757
v -0.637635 -1.156653 -1.654114
v -1.889166 -1.532830 0.345660
v 0.067332 -0.937653 -1.875077
v -2.241085 -0.521741 1.362071
v -1.387795 5.722742 -0.838455
v -2.347280 0.941215 -1.576962
v 0.309997 6.548327 -0.922163
v 1.271239 3.551413 -1.366981
v 1.277161 1.574427 -1.187851
v 1.207281 3.257140 0.829588
v 2.064286 -1.016848 1.307297
v 0.494286 6.631136 -0.143946
v 0.693924 5.710326 0.109460
v 2.450503 -0.168396 -0.951508
v -1.488534 4.923761 0.033245
v -2.317673 1.817474 -0.159498
v -0.272607 6.751748 -1.119531
v -1.678816 0.791467 -1.869734
v -0.754909 4.606266 -1.231772
v -0.651830 5.941838 -1.260703
v 1.108407 -1.029502 1.650527
v 0.767634 1.013848 1.402768
v 0.468741 5.592176 0.445036
v -0.092838 6.617332 0.403191
v -2.545082 -1.016135 0.929828
v -2.804508 0.542556 0.551636
v -2.288998 1.495024 0.452915
v -1.982431 3.825583 0.310995
v 1.731457 1.604169 -0.467938
v 1.786880 3.318536 -0.998166
v 0.830735 5.168249 -0.418871
v 0.470222 5.931749 -0.983441
v -1.045133 1.699412 1.128358
v -0.592557 4.537046 0.983383
v 2.397882 0.036403 0.209239
v 1.105988 4.125456 -0.120077
v 1.162381 0.540424 -1.887065
v 0.212285 1.633595 -1.455870
v 0.256278 3.943569 -1.504160
v 0.208591 6.218804 -1.241272
v -2.635541 -0.712271 -1.064923
v -2.739383 0.878309 -0.872539
v -2.241894 1.609709 -0.821898
v -1.679018 2.996270 -1.753477
v -1.195271 0.392826 1.727374
v -0.893712 6.119126 0.351144
v 1.740240 3.267667 0.282822
v 0.165313 4.940063 -1.159457
v -1.665778 4.063013 -0.854074
v 0.648343 -1.592450 0.436486
v -0.969069 6.756017 -0.962509
v -1.297569 -0.352208 -1.879345
v 2.443275 -0.915291 -0.819072
v -1.342055 -0.719807 1.625761
vt 0.746697 0.803553
vt 0.693598 0.731888
vt 0.856040 0.694778
vt 0.612714 0.825367
vt 0.536252 0.251756
vt 0.582571 0.331494
vt 0.535212 0.352269
vt 0.624149 0.216162
vt 0.576808 0.231684
vt 0.379733 0.031835
vt 0.399747 0.000000
vt 0.423275 0.000000
vt 0.514387 0.127381
vt 0.516878 0.039374
vt 0.548179 0.093417
vt 0.551693 0.617525
vt 0.571853 0.700152
vt 0.528119 0.732157
vt 0.611439 0.679165
vt 0.584112 0.519876
vt 0.606771 0.521962
vt 0.452884 0.596745
vt 0.409911 0.668326
vt 0.414590 0.508172
vt 0.456500 0.722047
vt 0.416963 0.456531
vt 0.386914 0.498999
vt 0.547290 0.445143
vt 0.519769 0.442099
vt 0.591067 0.453462
vt 0.550315 0.512769
vt 0.430025 0.244686
vt 0.392904 0.203188
vt 0.427740 0.179638
vt 0.412492 0.120302
vt 0.375438 0.120614
vt 0.569194 0.760072
vt 0.607738 0.932025
vt 0.624421 1.000000
vt 0.586386 1.000000
vt 0.190229 0.502872
vt 0.280531 0.531919
vt 0.127955 0.568085
vt 0.652775 0.631130
vt 0.651764 0.480875
vt 0.125000 0.721542
vt 0.159258 0.660011
vt 0.187500 0.750000
vt 0.300120 0.752179
vt 0.377730 0.375024
vt 0.375014 0.312363
vt 0.399234 0.312282
vt 0.390161 0.874598
vt 0.388809 0.812827
vt 0.418098 0.917579
vt 0.461628 0.830961
vt 0.430084 0.809549
vt 0.419890 0.068931
vt 0.450979 0.059735
vt 0.528919 0.899308
vt 0.351636 0.512253
vt 0.384248 0.562999
vt 0.384057 0.679282
vt 0.393634 0.936885
vt 0.612077 0.410795
vt 0.625000 0.356581
vt 0.518239 0.643648
vt 0.454464 1.000000
vt 0.456162 0.937580
vt 0.540013 1.000000
vt 0.386586 0.751615
vt 0.353357 0.758267
vt 0.404538 0.561041
vt 0.484771 0.690767
vt 0.501770 0.560157
vt 0.523009 0.526200
vt 0.482110 0.760743
vt 0.375671 0.435358
vt 0.455429 0.402398
vt 0.421856 0.373032
vt 0.454244 0.287944
vt 0.496158 0.381353
vt 0.491663 0.293331
vt 0.489860 0.480417
vt 0.375312 0.185147
vt 0.397229 0.252761
vt 0.472504 0.248900
vt 0.455283 0.188674
vt 0.494430 0.244162
vt 0.524452 0.199483
vt 0.837476 0.578720
vt 0.790122 0.577834
vt 0.540013 0.000000
vt 0.589684 0.055411
vt 0.508873 0.497582
vt 0.630065 0.932087
vt 0.281854 0.661020
vt 0.309896 0.497396
vt 0.624433 0.051114
vt 0.611663 0.284197
vt 0.372821 0.824880
vt 0.454464 0.000000
vt 0.452060 0.499825
vt 0.426015 0.301193
vt 0.461056 0.121434
vt 0.250000 0.500000
vt 0.125000 0.631579
vt 0.375000 0.937500
vt 0.399747 1.000000
vt 0.375000 1.000000
vt 0.423274 1.000000
vt 0.000000 0.000000
vt 0.000000 0.000000
vt 0.000000 0.000000
vn -0.0664 0.9971 -0.0384
vn 0.1612 0.7066 0.6890
vn -0.3259 0.0047 -0.9454
vn -0.5336 0.2170 -0.8174
vn -0.5229 0.1345 -0.8417
vn -0.7851 -0.0565 0.6168
vn -0.8616 0.4479 0.2389
vn 0.9827 0.0907 0.1614
vn 0.9311 0.2667 -0.2489
vn 0.9313 0.3428 -0.1229
vn 0.8901 0.4359 0.1333
vn 0.3897 -0.0336 -0.9203
vn -0.0429 0.3231 -0.9454
vn 0.7594 0.1174 -0.6399
vn -0.8738 0.0018 -0.4862
vn -0.9832 -0.1266 -0.1313
vn 0.6281 0.3720 0.6834
vn -0.4902 0.2657 0.8301
vn -0.1042 -0.9417 -0.3199
vn 0.2259 0.9697 -0.0925
vn -0.3315 -0.8598 0.3883
vn -0.0948 -0.9501 0.2973
vn -0.1637 -0.3882 -0.9069
vn 0.0907 0.0933 0.9915
vn 0.3831 0.4526 0.8052
vn -0.7689 0.4620 0.4420
vn 0.2837 0.1938 0.9391
vn -0.8580 -0.0183 0.5133
vn 0.6039 -0.7943 -0.0670
vn 0.7036 -0.4779 -0.5259
vn -0.0903 -0.0788 0.9928
vn 0.4341 0.5542 -0.7102
vn -0.0435 0.8056 -0.5909
vn 0.8336 0.3439 0.4323
vn -0.2479 -0.0368 0.9681
vn 0.8464 0.2318 0.4795
vn 0.6839 -0.6101 0.4001
vn 0.9972 0.0668 0.0334
vn -0.2561 0.3163 0.9134
vn 0.7531 0.6360 0.1684
vn 0.6908 0.7131 -0.1196
vn 0.7147 0.0498 0.6976
vn 0.2818 -0.1162 -0.9524
vn 0.7288 0.3240 0.6032
vn 0.8010 0.1319 0.5839
vn -0.0034 0.4626 -0.8866
vn -0.0266 0.3451 -0.9382
vn 0.0194 -0.1875 -0.9821
vn 0.0136 -0.1954 -0.9806
vn 0.1663 -0.1329 -0.9771
vn 0.0885 -0.0284 -0.9957
vn 0.4142 -0.0721 -0.9073
vn -0.3735 -0.6544 -0.6575
vn -0.8241 -0.2042 -0.5283
vn -0.7234 0.6079 -0.3272
vn -0.7440 0.5477 -0.3827
vn -0.6606 0.1176 -0.7415
vn -0.3884 0.9174 -0.0866
vn -0.4152 -0.2106 -0.8850
vn -0.9084 0.4168 0.0326
vn -0.9824 0.1331 -0.1313
vn 0.7884 -0.0014 -0.6152
vn 0.5956 0.0490 -0.8018
vn 0.9141 0.1544 -0.3750
vn 0.8079 0.2624 -0.5277
vn -0.9757 -0.0376 -0.2160
vn -0.9944 0.1058 0.0075
vn 0.5246 0.6244 0.5787
vn -0.2430 0.3498 0.9048
vn -0.0274 -0.9930 0.1145
vn 0.0951 -0.9906 0.0982
vn 0.1465 -0.8437 -0.5165
vn -0.9223 0.3075 0.2339
vn 0.7899 0.5613 -0.2468
vn -0.7582 -0.0575 -0.6495
vn 0.0290 -0.5993 0.8000
vn 0.1186 0.1390 0.9832
vn 0.4307 0.5167 0.7399
vn 0.1512 0.0944 0.9840
vn -0.6939 0.5172 0.5010
vn 0.4550 -0.0033 0.8905
vn 0.9999 -0.0113 -0.0092
vn 0.9991 -0.0213 0.0355
vn 0.8398 -0.1027 -0.5332
vn 0.9696 -0.1048 0.2210
vn 0.6709 0.5911 -0.4478
vn 0.4374 0.6290 -0.6427
vn -0.0387 0.1892 -0.9812
vn 0.0659 0.0404 0.9970
vn 0.0229 0.0474 0.9986
vn 0.5067 -0.8617 -0.0284
vn -0.1067 0.4578 -0.8826
vn 0.7909 0.6097 0.0530
vn 0.6085 0.5159 0.6030
vn 0.3685 -0.5201 -0.7705
vn 0.0774 0.4233 -0.9027
vn 0.3340 0.6143 -0.7149
vn -0.9345 0.3403 0.1045
vn -0.7888 0.5549 -0.2643
vn 0.0435 -0.0653 -0.9969
vn -0.6384 -0.3987 -0.6584
vn 0.9578 0.2477 -0.1459
vn 0.6236 0.6135 -0.4845
vn 0.4082 0.2933 -0.8645
vn 0.2303 -0.1837 -0.9556
vn -0.0447 -0.9905 -0.1300
vn 0.5644 0.7660 0.3077
vn -0.2822 0.3607 0.8890
vn 0.1593 -0.9853 -0.0617
vn -0.0030 -0.7706 -0.6373
vn 0.0851 0.9924 -0.0884
vn 0.5691 0.7216 -0.3942
vn -0.6040 -0.7924 0.0856
vn -0.2436 0.7506 -0.6142
vn -0.0492 -0.0466 -0.9977
vn -0.2107 0.2628 -0.9416
vn -0.3125 -0.6089 -0.7291
vn -0.3642 -0.0786 -0.9280
vn -0.3306 0.4366 -0.8367
vn -0.0583 0.3379 -0.9394
vn 0.2326 -0.6221 0.7476
vn -0.5174 -0.1477 -0.8429
vn 0.4514 0.2479 0.8572
vn -0.9141 0.3965 0.0851
vn 0.0430 0.3526 0.9348
vn 0.3652 -0.0452 0.9298
vn -0.9766 -0.1229 0.1764
vn -0.8772 0.0791 0.4736
vn -0.9698 0.1111 0.2171
vn 0.7716 -0.1585 -0.6161
vn -0.3438 -0.4883 0.8021
vn -0.1181 -0.6293 0.7681
vn -0.3032 -0.0337 0.9523
vn 0.9336 0.2853 -0.2167
vn -0.2333 0.4422 0.8661
vn -0.1566 0.4361 0.8862
vn -0.0320 0.4196 0.9072
vn 0.0877 -0.0731 -0.9935
vn 0.8017 0.2906 0.5223
vn 0.8472 0.5284 -0.0548
vn 0.2931 0.5130 -0.8068
vn 0.2016 0.1376 -0.9698
vn -0.6102 0.6335 -0.4757
vn -0.9982 0.0323 -0.0506
vn -0.8287 -0.5203 -0.2062
vn -0.7082 -0.0932 -0.6998
vn -0.9887 0.1486 0.0220
vn -0.8865 0.4574 0.0700
vn -0.7114 0.2077 -0.6714
vn -0.5188 0.1084 -0.8480
vn -0.0670 0.9960 0.0595
usemtl Rock.002
s off
f 33/1/1 32/2/1 29/3/1
f 62/4/2 32/2/2 33/1/2
f 10/5/3 58/6/3 57/7/3
f 2/8/4 58/6/4 43/9/4
f 43/9/5 58/6/5 10/5/5
f 63/10/6 42/11/6 7/12/6
f 22/13/7 66/14/7 53/15/7
f 69/16/8 51/17/8 19/18/8
f 50/19/9 70/20/9 45/21/9
f 67/22/10 73/23/10 17/24/10
f 20/25/11 73/23/11 67/22/11
f 75/26/12 17/24/12 18/27/12
f 57/7/13 86/28/13 77/29/13
f 78/30/14 70/20/14 14/31/14
f 44/32/15 79/33/15 80/34/15
f 23/35/16 79/33/16 24/36/16
f 50/19/17 62/4/17 61/37/17
f 84/38/18 29/39/18 21/40/18
f 39/41/19 38/42/19 6/43/19
f 34/44/20 31/45/20 32/2/20
f 63/46/21 40/47/21 37/48/21
f 37/48/22 40/47/22 5/49/22
f 41/50/23 39/51/23 90/52/23
f 26/53/24 59/54/24 83/55/24
f 20/25/25 25/56/25 60/57/25
f 64/58/26 7/12/26 65/59/26
f 72/60/27 61/37/27 62/4/27
f 7/12/28 64/58/28 63/10/28
f 3/61/29 91/62/29 35/63/29
f 91/62/30 3/61/30 18/27/30
f 92/64/31 26/53/31 83/55/31
f 45/21/32 78/30/32 55/65/32
f 31/45/33 55/65/33 4/66/33
f 74/67/34 69/16/34 19/18/34
f 8/68/35 71/69/35 9/70/35
f 49/71/36 35/63/36 73/23/36
f 1/72/37 35/63/37 49/71/37
f 73/23/38 35/63/38 52/73/38
f 62/4/39 84/38/39 72/60/39
f 19/18/40 85/74/40 74/67/40
f 74/67/41 68/75/41 15/76/41
f 85/74/42 48/77/42 20/25/42
f 18/27/43 36/78/43 75/26/43
f 61/37/44 51/17/44 50/19/44
f 51/17/45 61/37/45 19/18/45
f 76/79/46 28/80/46 13/81/46
f 27/82/47 57/7/47 77/29/47
f 82/83/48 76/79/48 13/81/48
f 27/82/49 76/79/49 82/83/49
f 76/79/50 27/82/50 16/84/50
f 58/6/51 86/28/51 57/7/51
f 14/31/52 86/28/52 78/30/52
f 6/85/53 79/33/53 30/86/53
f 12/87/54 81/88/54 11/89/54
f 22/13/55 87/90/55 11/89/55
f 53/15/56 87/90/56 22/13/56
f 10/5/57 87/90/57 43/9/57
f 2/91/58 29/3/58 4/92/58
f 13/81/59 12/87/59 82/83/59
f 53/15/60 66/14/60 9/93/60
f 9/93/61 21/94/61 53/15/61
f 18/27/62 17/24/62 52/73/62
f 16/84/63 46/95/63 68/75/63
f 14/31/64 70/20/64 69/16/64
f 45/21/65 70/20/65 78/30/65
f 23/35/66 80/34/66 79/33/66
f 21/94/67 2/8/67 43/9/67
f 62/4/68 50/19/68 32/2/68
f 33/96/69 29/39/69 84/38/69
f 5/49/70 40/47/70 88/97/70
f 5/49/71 88/97/71 1/72/71
f 38/42/72 36/98/72 3/61/72
f 21/94/73 29/99/73 2/8/73
f 50/19/74 45/21/74 34/44/74
f 89/100/75 58/6/75 2/8/75
f 5/101/76 59/54/76 26/53/76
f 83/55/77 59/54/77 60/57/77
f 72/60/78 48/77/78 19/18/78
f 72/60/79 25/56/79 48/77/79
f 65/59/80 7/12/80 8/102/80
f 72/60/81 19/18/81 61/37/81
f 91/62/82 52/73/82 35/63/82
f 67/22/83 68/75/83 85/74/83
f 52/73/84 91/62/84 18/27/84
f 85/74/85 20/25/85 67/22/85
f 17/24/86 47/103/86 67/22/86
f 31/45/87 45/21/87 55/65/87
f 78/30/88 58/6/88 55/65/88
f 9/70/89 71/69/89 72/60/89
f 71/69/90 25/56/90 72/60/90
f 1/72/91 3/61/91 35/63/91
f 13/81/92 28/80/92 56/104/92 44/32/92
f 74/67/93 85/74/93 68/75/93
f 19/18/94 48/77/94 85/74/94
f 18/27/95 3/61/95 36/78/95
f 76/79/96 75/26/96 28/80/96
f 15/76/97 46/95/97 77/29/97
f 80/34/98 23/35/98 54/105/98
f 81/88/99 80/34/99 54/105/99
f 78/30/100 86/28/100 58/6/100
f 12/87/101 13/81/101 81/88/101
f 51/17/102 69/16/102 70/20/102 50/19/102
f 68/75/103 46/95/103 15/76/103
f 86/28/104 14/31/104 15/76/104 77/29/104
f 76/79/105 16/84/105 47/103/105
f 40/47/106 6/43/106 38/42/106 88/97/106
f 34/44/107 32/2/107 50/19/107
f 62/4/108 33/96/108 84/38/108
f 88/97/109 38/42/109 3/61/109 1/72/109
f 41/106/110 36/98/110 38/42/110 39/41/110
f 32/2/111 31/45/111 4/92/111
f 31/45/112 34/44/112 45/21/112
f 24/107/113 6/43/113 40/47/113 63/46/113
f 4/66/114 55/65/114 89/100/114 2/8/114
f 28/80/115 41/50/115 90/52/115 56/104/115
f 89/100/116 55/65/116 58/6/116
f 39/51/117 6/85/117 30/86/117 90/52/117
f 56/104/118 90/52/118 30/86/118 44/32/118
f 10/5/119 57/7/119 82/83/119 11/89/119
f 57/7/120 27/82/120 82/83/120
f 1/72/121 49/71/121 59/54/121 5/101/121
f 82/83/122 12/87/122 11/89/122
f 49/71/123 20/25/123 60/57/123 59/54/123
f 23/35/124 64/58/124 65/59/124 54/105/124
f 25/56/125 83/55/125 60/57/125
f 25/56/126 20/25/126 48/77/126
f 63/10/127 64/58/127 23/35/127 24/36/127
f 8/102/128 9/93/128 66/14/128 65/59/128
f 54/105/129 65/59/129 66/14/129 22/13/129
f 67/22/130 47/103/130 16/84/130 68/75/130
f 37/108/131 92/64/131 42/109/131 63/110/131
f 37/108/132 5/101/132 26/53/132 92/64/132
f 42/109/133 92/64/133 83/55/133 7/111/133
f 15/76/134 14/31/134 69/16/134 74/67/134
f 7/111/135 83/55/135 71/69/135 8/68/135
f 9/70/136 72/60/136 84/38/136 21/40/136
f 83/55/137 25/56/137 71/69/137
f 75/26/138 36/78/138 41/50/138 28/80/138
f 73/23/139 20/25/139 49/71/139
f 52/73/140 17/24/140 73/23/140
f 47/103/141 17/24/141 75/26/141 76/79/141
f 46/95/142 16/84/142 27/82/142 77/29/142
f 44/32/143 80/34/143 81/88/143 13/81/143
f 11/89/144 81/88/144 54/105/144 22/13/144
f 79/33/145 6/85/145 24/36/145
f 79/33/146 44/32/146 30/86/146
f 43/9/147 87/90/147 53/15/147 21/94/147
f 87/90/148 10/5/148 11/89/148
f 89/100/149 43/9/149 2/8/149
f 58/112/150 43/113/150 89/114/150
f 29/3/151 32/2/151 4/92/151
l 4 32
